<?xml version="1.0" standalone="no"?>
<!DOCTYPE svg PUBLIC "-//W3C//DTD SVG 20010904//EN"
 "http://www.w3.org/TR/2001/REC-SVG-20010904/DTD/svg10.dtd">
<svg version="1.0" xmlns="http://www.w3.org/2000/svg"
 width="225.000000pt" height="225.000000pt" viewBox="0 0 225.000000 225.000000"
 preserveAspectRatio="xMidYMid meet">

<g transform="translate(0.000000,225.000000) scale(0.100000,-0.100000)"
fill="#000000" stroke="none">
<path d="M608 2215 c-123 -45 -202 -152 -215 -290 l-6 -63 -71 -4 c-130 -8
-231 -75 -285 -188 l-26 -55 0 -485 0 -485 26 -56 c33 -71 87 -125 158 -158
54 -25 63 -26 272 -29 178 -3 217 -1 227 11 7 8 10 21 6 30 -4 13 -39 16 -217
19 -244 4 -271 11 -343 90 -70 76 -69 69 -69 583 0 514 -3 493 72 575 75 84
31 80 792 80 664 0 675 0 718 -21 54 -26 116 -96 131 -147 17 -55 17 -929 0
-984 -15 -51 -78 -121 -131 -146 -23 -12 -69 -24 -102 -27 -60 -7 -61 -8 -150
-99 -49 -50 -115 -112 -145 -138 -76 -64 -201 -148 -211 -143 -4 3 3 29 15 58
33 74 76 213 76 246 0 16 -10 37 -23 50 -23 20 -31 21 -168 19 l-144 -3 0 -25
0 -25 130 -3 c71 -1 133 -6 138 -11 9 -9 -33 -147 -68 -223 -30 -65 -31 -88
-4 -122 27 -34 67 -34 122 1 94 59 207 152 302 248 96 98 102 102 152 108 75
9 144 42 196 95 57 58 86 122 94 207 l6 65 32 0 c146 0 272 76 328 198 20 42
22 67 25 258 3 182 2 212 -12 223 -9 7 -22 11 -30 8 -11 -5 -15 -46 -18 -214
-4 -201 -5 -210 -30 -258 -50 -96 -129 -144 -235 -145 l-62 0 -3 387 c-3 374
-4 390 -25 435 -30 66 -104 141 -166 169 l-52 24 -577 3 -578 3 0 57 c1 96 51
175 144 225 l41 22 675 0 675 0 54 -30 c58 -32 90 -68 118 -131 13 -31 18 -81
22 -244 l6 -205 25 0 25 0 0 220 c0 213 -1 222 -25 270 -34 70 -108 139 -175
164 -54 21 -71 21 -728 20 -543 0 -679 -3 -709 -14z"/>
<path d="M363 1210 c-40 -24 -53 -48 -53 -99 0 -86 55 -138 138 -128 109 12
150 143 66 216 -42 37 -101 42 -151 11z m119 -71 c24 -31 11 -73 -27 -91 -22
-10 -30 -8 -53 9 -35 26 -40 65 -12 93 27 27 67 23 92 -11z"/>
<path d="M661 1204 c-68 -57 -58 -169 20 -210 131 -67 253 104 145 203 -30 28
-43 33 -85 33 -38 0 -56 -6 -80 -26z m122 -51 c29 -33 26 -77 -8 -99 -61 -40
-128 43 -75 96 25 25 62 26 83 3z"/>
<path d="M965 1197 c-41 -41 -52 -90 -31 -140 43 -105 197 -99 235 9 18 52 9
88 -34 131 -29 29 -39 33 -85 33 -46 0 -56 -4 -85 -33z m123 -43 c46 -32 17
-114 -40 -114 -28 0 -58 37 -58 69 0 31 30 61 60 61 9 0 26 -7 38 -16z"/>
<path d="M1275 1197 c-109 -109 22 -276 153 -197 70 43 78 136 17 197 -29 29
-39 33 -85 33 -46 0 -56 -4 -85 -33z m123 -43 c43 -30 15 -114 -38 -114 -29 0
-60 36 -60 69 0 31 30 61 60 61 9 0 26 -7 38 -16z"/>
</g>
</svg>
